<svg width="150" height="120" viewBox="0 0 150 120" fill="none" xmlns="http://www.w3.org/2000/svg">
<path d="M124.394 114.843C122.71 114.43 119.873 117.646 112.571 111.956C103.493 104.883 100.667 116.516 84.3985 103.917C70.8947 93.4607 64.204 108.393 60.0833 111.734C58.7162 112.842 52.6021 115.259 53.026 103.852C53.2856 96.8252 47.5 95.5993 45.3537 98.0778C41.1262 102.955 47.8589 109.351 45.3995 110.046C42.0809 110.986 39.3313 94.2703 29.9367 88.5801C21.7833 83.6422 9.93694 95.2861 30.1047 103.921C35.0579 106.04 37.5364 107.954 39.0143 110.157C40.3433 112.139 39.5642 114.847 37.3989 115.855L14.7068 119.132H150.004C150.004 119.132 126.212 115.286 124.398 114.843H124.394Z" fill="#AFD7E2"/>
<path d="M73.148 115.526C78.674 116.267 124.57 116.004 124.57 116.004L122.538 115.099C120.671 115.549 117.738 115.985 112.571 111.956C103.493 104.883 100.667 116.516 84.3986 103.917C75.5807 97.0887 68.8708 101.935 64.1277 107.048C65.0022 107.866 66.4992 108.733 69.0656 109.233C74.9391 110.382 67.622 114.782 73.148 115.526Z" fill="#688099"/>
<path d="M34.9854 69.8406C34.1109 68.821 32.5757 68.7064 31.556 69.5809L30.3683 70.6006C29.3487 71.4751 29.2341 73.0103 30.1086 74.03C30.9832 75.0496 32.5184 75.1642 33.538 74.2897L34.7257 73.27C35.7454 72.3955 35.86 70.8603 34.9854 69.8406Z" fill="#2E323D"/>
<path d="M39.9959 75.3475C39.1214 74.3279 37.5862 74.2133 36.5665 75.0878L35.3788 76.1075C34.3592 76.982 34.2446 78.5172 35.1191 79.5369C35.9937 80.5565 37.5289 80.6711 38.5485 79.7966L39.7362 78.7769C40.7559 77.9024 40.8705 76.3672 39.9959 75.3475Z" fill="#2E323D"/>
<path d="M45.0024 80.6482C44.0438 79.7088 42.501 79.724 41.5615 80.6864L40.4655 81.8054C39.526 82.7639 39.5413 84.3068 40.5037 85.2462C41.4622 86.1857 43.0051 86.1704 43.9445 85.208L45.0406 84.0891C45.98 83.1305 45.9647 81.5877 45.0024 80.6482Z" fill="#2E323D"/>
<path d="M50.4749 85.6701C49.4934 84.7535 47.9544 84.8032 47.0378 85.7847L45.9685 86.9303C45.052 87.9118 45.1016 89.4508 46.0831 90.3674C47.0646 91.2839 48.6036 91.2343 49.5202 90.2528L50.5895 89.1071C51.506 88.1257 51.4563 86.5866 50.4749 85.6701Z" fill="#2E323D"/>
<path d="M55.7757 90.8906C54.7025 90.0809 53.1788 90.2986 52.3692 91.3717L51.4259 92.6244C50.6163 93.6975 50.834 95.2212 51.9071 96.0308C52.9802 96.8405 54.504 96.6228 55.3136 95.5497L56.2568 94.297C57.0665 93.2239 56.8488 91.7002 55.7757 90.8906Z" fill="#2E323D"/>
<path d="M62.1379 95.9697C60.9999 95.2594 59.499 95.6069 58.7849 96.745L57.9562 98.074C57.2459 99.212 57.5934 100.713 58.7314 101.427C59.8695 102.141 61.3703 101.79 62.0845 100.652L62.9132 99.3228C63.6235 98.1847 63.276 96.6839 62.1379 95.9697Z" fill="#2E323D"/>
<path d="M68.6072 100.51C67.4272 99.8689 65.9493 100.304 65.3077 101.488L64.5592 102.863C63.9176 104.043 64.353 105.521 65.5368 106.162C66.7169 106.804 68.1948 106.369 68.8364 105.185L69.5849 103.81C70.2265 102.63 69.7911 101.152 68.6072 100.51Z" fill="#2E323D"/>
<path d="M75.7831 103.89C74.5343 103.398 73.1213 104.009 72.6249 105.257L72.0482 106.716C71.5556 107.965 72.1666 109.378 73.4154 109.874C74.6642 110.367 76.0772 109.756 76.5736 108.507L77.1503 107.048C77.6429 105.8 77.0319 104.387 75.7831 103.89Z" fill="#2E323D"/>
<path d="M8.91351 33.3965C8.91351 33.3965 3.90689 36.9825 5.55285 41.4354C7.20263 45.8883 24.6017 67.576 26.7479 68.9775C28.8903 70.3791 31.1168 67.2476 31.1168 67.2476L8.91351 33.3965Z" fill="#2E323D"/>
<path d="M21.1418 25.5753C21.1418 25.5753 16.0626 26.4689 11.8007 29.6005C8.04284 32.3616 7.24087 37.6622 9.83774 41.5346C18.2012 54.0264 42.2185 87.0525 73.7361 105.872C76.4896 107.514 79.4798 108.717 82.6113 109.401C93.3196 111.727 119.372 116.913 123.271 115.179C126.728 113.644 125.67 109.725 125.67 109.725L21.1418 25.5753Z" fill="#2E323D"/>
<path d="M11.0139 43.2762C13.416 46.7934 16.7614 51.4792 20.9202 56.8066L31.2008 33.6754L24.6246 28.3823L11.0139 43.2762Z" fill="#D3657C"/>
<path d="M31.0786 69.0654C42.3674 81.8741 56.9901 95.8781 73.7361 105.872C75.0574 106.663 76.4399 107.346 77.8643 107.927L79.3614 89.7793L52.2126 50.5894L47.141 46.507L31.0824 69.0654H31.0786Z" fill="#A4234B"/>
<path d="M17.8765 27.8781C17.8765 27.8781 38.2046 66.5754 75.1413 96.5196C82.0116 102.091 108.534 109.596 125.803 111.482C125.872 110.493 125.666 109.725 125.666 109.725L21.1417 25.5753C21.1417 25.5753 20.0953 25.7624 18.5639 26.2513C18.3156 26.7859 18.0827 27.3244 17.8803 27.8743L17.8765 27.8781Z" fill="#D3657C"/>
<path d="M124.131 116.08C124.131 116.08 124.1 116.08 124.085 116.08C106.209 115.496 93.4456 113.178 82.3173 110.76C79.075 110.054 75.9473 108.813 73.022 107.068C41.4776 88.2364 17.5176 55.5081 8.68062 42.3137C6.76734 39.4533 5.81261 34.8706 8.87921 30.582C9.32602 29.9557 10.1967 29.8105 10.8192 30.2574C11.4455 30.7042 11.5906 31.5749 11.1438 32.1974C8.32546 36.1423 10.3189 39.7512 10.9949 40.7632C19.7288 53.8049 43.3909 86.136 74.4503 104.681C77.1159 106.269 79.961 107.404 82.9092 108.041C93.9077 110.432 106.522 112.723 124.173 113.3C124.94 113.327 125.544 113.968 125.517 114.736C125.494 115.488 124.875 116.084 124.127 116.084L124.131 116.08Z" fill="#4D5768"/>
<path d="M21.1418 25.5754C21.1418 25.5754 41.5158 65.3801 78.4525 95.3282C85.8727 101.347 119.22 109.286 125.67 109.726C125.67 109.726 132.265 103.191 127.281 93.4111L110.131 77.3257L101.187 58.1661C101.187 58.1661 99.5751 20.9315 93.5641 19.8088C87.5531 18.686 84.475 32.0217 84.475 32.0217C84.475 32.0217 81.1029 36.4097 72.3079 31.7277C63.5129 27.0457 54.7141 20.668 56.8412 14.363C58.9684 8.05793 61.7524 5.49542 59.5527 2.78016C57.353 0.0687215 47.8247 -2.57016 42.1078 4.75837C42.1078 4.75837 25.6902 13.2631 21.1457 25.5754H21.1418Z" fill="#D83363"/>
<path d="M80.6293 93.5294C49.3065 68.1335 28.3291 32.5181 22.6771 22.2758C22.0775 23.3412 21.5581 24.4411 21.1418 25.5753C21.1418 25.5753 41.5158 65.38 78.4525 95.3281C85.8727 101.347 119.22 109.286 125.67 109.725C125.67 109.725 126.334 109.065 127.083 107.854C119.124 106.941 87.7975 99.338 80.6293 93.5294Z" fill="#A4234B"/>
<path d="M127.281 93.4111L110.13 77.3257L101.187 58.1662C101.187 58.1662 99.5749 20.9316 93.5639 19.8088C87.5529 18.686 84.4749 32.0218 84.4749 32.0218C84.4749 32.0218 81.1027 36.4097 72.3077 31.7277C68.569 29.738 64.8341 27.439 61.9355 24.972C48.279 38.8156 60.4385 67.2323 89.176 69.7108L94.4537 78.6127C94.4537 78.6127 85.7962 83.6614 95.4428 89.5158C102.775 93.9648 118.108 97.314 129.145 100.782C129.164 98.6277 128.675 96.1493 127.285 93.4149L127.281 93.4111Z" fill="#A4234B"/>
<path d="M89.4089 44.9106C89.4089 46.6368 88.0112 48.0345 86.285 48.0345C84.5589 48.0345 83.1611 46.6368 83.1611 44.9106C83.1611 43.1845 84.5589 41.7867 86.285 41.7867C88.0112 41.7867 89.4089 43.1845 89.4089 44.9106Z" fill="#D3657C"/>
<path d="M90.2568 54.2899C90.2568 56.0161 88.8591 57.4138 87.1329 57.4138C85.4068 57.4138 84.009 56.0161 84.009 54.2899C84.009 52.5637 85.4068 51.166 87.1329 51.166C88.8591 51.166 90.2568 52.5637 90.2568 54.2899Z" fill="#D3657C"/>
<path d="M91.666 63.9175C91.666 65.6436 90.2683 67.0414 88.5421 67.0414C86.8159 67.0414 85.4182 65.6436 85.4182 63.9175C85.4182 62.1913 86.8159 60.7936 88.5421 60.7936C90.2683 60.7936 91.666 62.1913 91.666 63.9175Z" fill="#D3657C"/>
<path d="M48.2752 30.1925L42.1076 4.75842C42.1076 4.75842 37.3454 7.22927 32.2395 11.4301C33.2973 24.4259 48.279 30.1925 48.279 30.1925H48.2752Z" fill="#A4234B"/>
<path d="M19.0871 20.7596L15.7837 23.6315C14.6724 24.5977 14.3821 26.2093 15.0925 27.5C17.3418 31.5825 22.9213 40.9045 32.7817 52.7241C34.126 54.3357 36.7382 53.6979 37.1964 51.651L38.2084 47.1446C38.3497 46.5145 38.2466 45.8538 37.9144 45.2963L23.834 21.5272C22.8372 19.8469 20.5612 19.4765 19.0871 20.7596Z" fill="#2E323D"/>
<path d="M84.3947 32.1172C83.841 32.7244 80.3314 36.0011 72.3078 31.7277C63.5128 27.0457 54.714 20.668 56.8411 14.363C58.9682 8.05793 61.7523 5.49542 59.5525 2.78016C57.3528 0.0687215 47.8246 -2.57016 42.1077 4.75837L48.2791 30.1886C48.2791 30.1886 75.8136 42.4856 84.3947 32.1134V32.1172Z" fill="#2E323D"/>
<path d="M100.591 42.879H85.7887C85.0188 42.879 84.3948 43.503 84.3948 44.2729V45.5446C84.3948 46.3144 85.0188 46.9385 85.7887 46.9385H100.591C101.361 46.9385 101.985 46.3144 101.985 45.5446V44.2729C101.985 43.503 101.361 42.879 100.591 42.879Z" fill="#D3657C"/>
<path d="M93.48 42.879H85.7887C85.0188 42.879 84.3948 43.503 84.3948 44.2729V45.5446C84.3948 46.3144 85.0188 46.9385 85.7887 46.9385H93.48C94.2498 46.9385 94.8739 46.3144 94.8739 45.5446V44.2729C94.8739 43.503 94.2498 42.879 93.48 42.879Z" fill="#2E323D"/>
<path d="M86.4365 52.2814L101.231 51.6924C101.998 51.6618 102.648 52.2589 102.679 53.0297L102.73 54.3042C102.76 55.0712 102.163 55.7218 101.392 55.7525L86.5982 56.3415C85.8312 56.3721 85.1806 55.775 85.1499 55.0042L85.0992 53.7297C85.0686 52.9627 85.6657 52.3121 86.4365 52.2814Z" fill="#D3657C"/>
<path d="M86.4346 52.2811L94.1236 51.975C94.8906 51.9444 95.5412 52.5415 95.5719 53.3123L95.6226 54.5868C95.6532 55.3538 95.0561 56.0044 94.2853 56.0351L86.5962 56.3412C85.8292 56.3718 85.1786 55.7747 85.1479 55.0039L85.0972 53.7294C85.0667 52.9624 85.6637 52.3118 86.4346 52.2811Z" fill="#2E323D"/>
<path d="M87.6999 62.002L102.324 59.6884C103.082 59.5685 103.798 60.0854 103.919 60.8474L104.117 62.1035C104.237 62.8616 103.72 63.5775 102.958 63.6981L88.3342 66.0117C87.5761 66.1316 86.8602 65.6147 86.7396 64.8527L86.5403 63.5929C86.4204 62.8347 86.9373 62.1188 87.6993 61.9982L87.6999 62.002Z" fill="#D3657C"/>
<path d="M87.6986 62.0039L95.2992 60.8014C96.0574 60.6815 96.7732 61.1985 96.8938 61.9604L97.0931 63.2203C97.213 63.9784 96.6955 64.6906 95.9373 64.8105L88.3367 66.013C87.5785 66.1329 86.8626 65.6159 86.7421 64.854L86.5428 63.5941C86.4228 62.836 86.9398 62.1201 87.7017 61.9995L87.6986 62.0039Z" fill="#2E323D"/>
<path d="M22.4553 22.8716L35.8139 45.6782C35.9171 45.8539 35.9552 46.0563 35.9209 46.2549L35.7567 47.2974C35.6306 48.0994 34.569 48.3056 34.1489 47.6106L19.7477 23.7881C19.5491 23.4597 19.6026 23.0358 19.8775 22.7646L20.099 22.5469C20.8017 21.8634 21.9589 22.0199 22.4515 22.8639L22.4553 22.8716Z" fill="#5C687C"/>
<path d="M128.465 96.3134C128.179 95.3816 127.793 94.4154 127.281 93.4111L110.13 77.3257C98.4788 72.7163 90.7111 83.1725 128.469 96.3134H128.465Z" fill="#F7548B"/>
<path d="M62.8749 44.8648C64.0741 49.4704 67.2934 56.4056 75.9357 60.7783C78.2117 61.9316 80.8774 60.1329 80.675 57.5895L79.6286 44.3492C79.4911 42.5925 77.9864 41.2483 76.2259 41.3323C74.2171 41.4316 71.0971 41.3667 66.4609 40.7785C64.1504 40.4845 62.283 42.6116 62.8711 44.8648H62.8749Z" fill="#D83363"/>
<path d="M77.8491 57.1159C71.3225 53.2932 68.6875 47.8092 67.6335 43.7535C67.6335 43.742 67.6335 43.7306 67.6335 43.7191C67.137 43.6657 66.6329 43.6046 66.1173 43.5396C66.0906 43.5396 66.0677 43.5358 66.041 43.5358C65.8386 43.5358 65.7125 43.658 65.6591 43.7306C65.5598 43.8566 65.533 44.0056 65.5751 44.166C66.7016 48.5004 69.6346 54.4694 77.1999 58.296C77.2763 58.3342 77.345 58.3533 77.4137 58.3533C77.5436 58.3533 77.6887 58.2845 77.788 58.1776C77.914 58.0439 77.9178 57.9027 77.9102 57.811L77.8567 57.1159H77.8491Z" fill="#F7548B"/>
<path d="M61.3435 69.5198L60.6141 68.6682L59.9191 67.786L58.529 66.0217L57.1351 64.265C56.673 63.6768 56.2414 63.0658 55.7908 62.4662C54.9048 61.2595 54.0035 60.0718 53.1328 58.8535C49.6538 53.9882 46.3428 49.0083 43.1845 43.9368C40.0301 38.8614 37.0589 33.6715 34.1413 28.4586L29.761 20.6489L27.5727 16.746L27.229 16.1273C26.4041 17.0209 25.6174 17.9604 24.8804 18.9342C25.4952 20.0761 26.1292 21.2065 26.7707 22.3369C27.5002 23.6544 28.2716 24.9452 29.043 26.236C29.803 27.5345 30.6011 28.81 31.3993 30.0855C34.611 35.1762 37.9717 40.1675 41.4087 45.1054C44.8839 50.0165 48.4355 54.8704 52.1934 59.5639C55.9932 64.2229 59.9725 68.7407 64.2688 72.9301L61.3473 69.5122L61.3435 69.5198Z" fill="#A31332"/>
<path d="M128.836 103.527C126.8 103.226 124.761 102.886 122.729 102.515C118.414 101.687 114.11 100.743 109.825 99.6932C105.548 98.6277 101.282 97.4744 97.043 96.2409C92.804 94.9997 88.5802 93.6936 84.3909 92.2692C88.4809 93.9533 92.6207 95.5229 96.7833 97.0314C100.95 98.5322 105.147 99.9529 109.374 101.293C113.61 102.618 117.879 103.837 122.191 104.952C124.092 105.422 126.002 105.865 127.919 106.277C128.278 105.483 128.606 104.562 128.832 103.531L128.836 103.527Z" fill="#A31332"/>
<path d="M33.9619 12.2359C33.9619 12.2359 36.7994 9.01271 40.9315 7.42786L43.2419 16.5933C43.2419 16.5933 39.6216 18.3424 35.6041 17.6664C35.6041 17.6664 34.0765 14.9512 33.9619 12.2359Z" fill="#D3657C"/>
<path d="M38.6746 19.6254C39.9081 19.5223 41.5579 19.3466 42.7417 19.0717C43.1809 18.9686 43.6163 19.2397 43.7232 19.6789L44.7238 23.7652C44.888 24.4296 44.2197 24.9948 43.5972 24.7161C42.2415 24.1165 40.1601 22.9785 38.1705 21.0384C37.6664 20.5458 37.9757 19.6865 38.6784 19.6254H38.6746Z" fill="#D83363"/>
<path d="M27.1182 82.6761C31.8827 82.6761 35.7451 78.8136 35.7451 74.0491C35.7451 69.2845 31.8827 65.4221 27.1182 65.4221C22.3536 65.4221 18.4912 69.2845 18.4912 74.0491C18.4912 78.8136 22.3536 82.6761 27.1182 82.6761Z" fill="#AFD7E2"/>
<path d="M8.32536 85.7198C9.94307 85.7198 11.2545 84.4083 11.2545 82.7906C11.2545 81.1729 9.94307 79.8615 8.32536 79.8615C6.70765 79.8615 5.39624 81.1729 5.39624 82.7906C5.39624 84.4083 6.70765 85.7198 8.32536 85.7198Z" fill="#688099"/>
<path d="M62.768 111.482C62.768 113.525 61.1106 115.183 59.0675 115.183C57.0244 115.183 55.3669 113.525 55.3669 111.482C55.3669 109.439 57.0244 107.782 59.0675 107.782C61.1106 107.782 62.768 109.439 62.768 111.482Z" fill="#688099"/>
<path d="M5.22048 72.2618C8.10367 72.2618 10.441 69.9245 10.441 67.0413C10.441 64.1581 8.10367 61.8209 5.22048 61.8209C2.33729 61.8209 0 64.1581 0 67.0413C0 69.9245 2.33729 72.2618 5.22048 72.2618Z" fill="#AFD7E2"/>
</svg>
